<svg xmlns="http://www.w3.org/2000/svg" width="251.0725555419922" height="255.52304077148438" viewBox="-28.829511642456055 -20.736106872558594 251.0725555419922 255.52304077148438"><title>Neo4j Graph Visualization</title><desc>Created using Neo4j (http://www.neo4j.com/)</desc><g class="layer relationships"><g class="relationship" transform="translate(148.41265985163753 205.7869369101555) rotate(234.7832729270428)"><path class="outline" fill="#A5ABB6" stroke="none" d="M 25 0.5 L 34.954293576249306 0.5 L 34.954293576249306 -0.5 L 25 -0.5 Z M 69.95429357624931 0.5 L 79.90858715249861 0.5 L 79.90858715249861 3.5 L 86.90858715249861 0 L 79.90858715249861 -3.5 L 79.90858715249861 -0.5 L 69.95429357624931 -0.5 Z"/><text text-anchor="middle" pointer-events="none" font-size="8px" fill="#000000" x="52.454293576249306" y="3" transform="rotate(180 52.454293576249306 0)" font-family="sans-serif">WROTE</text></g><g class="relationship" transform="translate(193.24303475526943 91.1781181558772) rotate(528.0321242300142)"><path class="outline" fill="#A5ABB6" stroke="none" d="M 25 0.5 L 34.89738205508022 0.5 L 34.89738205508022 -0.5 L 25 -0.5 Z M 69.89738205508021 0.5 L 79.79476411016044 0.5 L 79.79476411016044 3.5 L 86.79476411016044 0 L 79.79476411016044 -3.5 L 79.79476411016044 -0.5 L 69.89738205508021 -0.5 Z"/><text text-anchor="middle" pointer-events="none" font-size="8px" fill="#000000" x="52.39738205508022" y="3" transform="rotate(180 52.39738205508022 0)" font-family="sans-serif">WROTE</text></g><g class="relationship" transform="translate(119.08008263972198 8.26389436252288) rotate(468.35539418306206)"><path class="outline" fill="#A5ABB6" stroke="none" d="M 25 0.5 L 28.891870585343113 0.5 L 28.891870585343113 -0.5 L 25 -0.5 Z M 75.89187058534311 0.5 L 79.78374117068623 0.5 L 79.78374117068623 3.5 L 86.78374117068623 0 L 79.78374117068623 -3.5 L 79.78374117068623 -0.5 L 75.89187058534311 -0.5 Z"/><text text-anchor="middle" pointer-events="none" font-size="8px" fill="#000000" x="52.39187058534311" y="3" transform="rotate(180 52.39187058534311 0)" font-family="sans-serif">DIRECTED</text></g><g class="relationship" transform="translate(0.1704887021271878 40.121400186651826) rotate(401.56922031980156)"><path class="outline" fill="#A5ABB6" stroke="none" d="M 25 0.5 L 29.942812872175153 0.5 L 29.942812872175153 -0.5 L 25 -0.5 Z M 74.94281287217515 0.5 L 79.8856257443503 0.5 L 79.8856257443503 3.5 L 86.8856257443503 0 L 79.8856257443503 -3.5 L 79.8856257443503 -0.5 L 74.94281287217515 -0.5 Z"/><text text-anchor="middle" pointer-events="none" font-size="8px" fill="#000000" x="52.44281287217515" y="3" font-family="sans-serif">ACTED_IN</text></g><g class="relationship" transform="translate(2.3076102033694137 187.42810975343914) rotate(318.14722604578304)"><path class="outline" fill="#A5ABB6" stroke="none" d="M 25 0.5 L 28.75554960197055 0.5 L 28.75554960197055 -0.5 L 25 -0.5 Z M 73.75554960197056 0.5 L 77.5110992039411 0.5 L 77.5110992039411 3.5 L 84.5110992039411 0 L 77.5110992039411 -3.5 L 77.5110992039411 -0.5 L 73.75554960197056 -0.5 Z"/><text text-anchor="middle" pointer-events="none" font-size="8px" fill="#000000" x="51.25554960197055" y="3" font-family="sans-serif">ACTED_IN</text></g></g><g class="layer nodes"><g class="node" transform="translate(148.41265985163753,205.7869369101555)"><circle class="outline" cx="0" cy="0" r="25" fill="#F79767" stroke="#f36924" stroke-width="2px"/><text text-anchor="middle" pointer-events="none" font-family="sans-serif" dy="1.5625" font-size="25" fill="#FFFFFF"/><text text-anchor="middle" pointer-events="none" font-family="sans-serif" dy="1.5625" font-size="25" fill="#FFFFFF"/><text text-anchor="middle" pointer-events="none" x="0" y="0" font-size="10px" fill="#FFFFFF" font-family="sans-serif"> Stephen</text><text text-anchor="middle" pointer-events="none" x="0" y="10" font-size="10px" fill="#FFFFFF" font-family="sans-serif"> McFeely</text></g><g class="node" transform="translate(83.87823967271291,114.36024228195413)"><circle class="outline" cx="0" cy="0" r="25" fill="#57C7E3" stroke="#23b3d7" stroke-width="2px"/><text text-anchor="middle" pointer-events="none" font-family="sans-serif" dy="1.5625" font-size="25" fill="#2A2C34"/><text text-anchor="middle" pointer-events="none" font-family="sans-serif" dy="1.5625" font-size="25" fill="#2A2C34"/><text text-anchor="middle" pointer-events="none" x="0" y="0" font-size="10px" fill="#2A2C34" font-family="sans-serif"> Captain</text><text text-anchor="middle" pointer-events="none" x="0" y="10" font-size="10px" fill="#2A2C34" font-family="sans-serif"> America:</text></g><g class="node" transform="translate(193.24303475526943,91.1781181558772)"><circle class="outline" cx="0" cy="0" r="25" fill="#F79767" stroke="#f36924" stroke-width="2px"/><text text-anchor="middle" pointer-events="none" font-family="sans-serif" dy="1.5625" font-size="25" fill="#FFFFFF"/><text text-anchor="middle" pointer-events="none" x="0" y="5" font-size="10px" fill="#FFFFFF" font-family="sans-serif"> Christop…</text></g><g class="node" transform="translate(119.08008263972198,8.26389436252288)"><circle class="outline" cx="0" cy="0" r="25" fill="#F79767" stroke="#f36924" stroke-width="2px"/><text text-anchor="middle" pointer-events="none" font-family="sans-serif" dy="1.5625" font-size="25" fill="#FFFFFF"/><text text-anchor="middle" pointer-events="none" font-family="sans-serif" dy="1.5625" font-size="25" fill="#FFFFFF"/><text text-anchor="middle" pointer-events="none" x="0" y="0" font-size="10px" fill="#FFFFFF" font-family="sans-serif"> Joe</text><text text-anchor="middle" pointer-events="none" x="0" y="10" font-size="10px" fill="#FFFFFF" font-family="sans-serif"> Johnston</text></g><g class="node" transform="translate(0.1704887021271878,40.121400186651826)"><circle class="outline" cx="0" cy="0" r="25" fill="#F79767" stroke="#f36924" stroke-width="2px"/><text text-anchor="middle" pointer-events="none" font-family="sans-serif" dy="1.5625" font-size="25" fill="#FFFFFF"/><text text-anchor="middle" pointer-events="none" font-family="sans-serif" dy="1.5625" font-size="25" fill="#FFFFFF"/><text text-anchor="middle" pointer-events="none" x="0" y="0" font-size="10px" fill="#FFFFFF" font-family="sans-serif"> Hayley</text><text text-anchor="middle" pointer-events="none" x="0" y="10" font-size="10px" fill="#FFFFFF" font-family="sans-serif"> Atwell</text></g><g class="node" transform="translate(2.3076102033694137,187.42810975343914)"><circle class="outline" cx="0" cy="0" r="25" fill="#F79767" stroke="#f36924" stroke-width="2px"/><text text-anchor="middle" pointer-events="none" font-family="sans-serif" dy="1.5625" font-size="25" fill="#FFFFFF"/><text text-anchor="middle" pointer-events="none" font-family="sans-serif" dy="1.5625" font-size="25" fill="#FFFFFF"/><text text-anchor="middle" pointer-events="none" x="0" y="0" font-size="10px" fill="#FFFFFF" font-family="sans-serif"> Chris</text><text text-anchor="middle" pointer-events="none" x="0" y="10" font-size="10px" fill="#FFFFFF" font-family="sans-serif"> Evans</text></g></g></svg>