<svg xmlns="http://www.w3.org/2000/svg" width="264.9632263183594" height="283.5380859375" viewBox="-29.475475311279297 -37.292564392089844 264.9632263183594 283.5380859375"><title>Neo4j Graph Visualization</title><desc>Created using Neo4j (http://www.neo4j.com/)</desc><g class="layer relationships"><g class="relationship" transform="translate(112.46415375976265 -8.292565920218454) rotate(390.0989474562779)"><path class="outline" fill="#A5ABB6" stroke="none" d="M 25 0.5 L 33.83881682305688 0.5 L 33.83881682305688 -0.5 L 25 -0.5 Z M 67.83881682305687 0.5 L 76.67763364611376 0.5 L 76.67763364611376 3.5 L 83.67763364611376 0 L 76.67763364611376 -3.5 L 76.67763364611376 -0.5 L 67.83881682305687 -0.5 Z"/><text text-anchor="middle" pointer-events="none" font-size="8px" fill="#000000" x="50.83881682305688" y="3" font-family="sans-serif">ORIGIN</text></g><g class="relationship" transform="translate(112.46415375976265 -8.292565920218454) rotate(517.1708084064446)"><path class="outline" fill="#A5ABB6" stroke="none" d="M 25 0.5 L 26.972811480720473 0.5 L 26.972811480720473 -0.5 L 25 -0.5 Z M 74.97281148072048 0.5 L 76.94562296144095 0.5 L 76.94562296144095 3.5 L 83.94562296144095 0 L 76.94562296144095 -3.5 L 76.94562296144095 -0.5 L 74.97281148072048 -0.5 Z"/><text text-anchor="middle" pointer-events="none" font-size="8px" fill="#000000" x="50.97281148072047" y="3" transform="rotate(180 50.97281148072047 0)" font-family="sans-serif">DESTINA…</text></g><g class="relationship" transform="translate(-0.4754757335993169 142.194669639504) rotate(276.603632849813)"><path class="outline" fill="#A5ABB6" stroke="none" d="M 25 0.5 L 33.97035716224159 0.5 L 33.97035716224159 -0.5 L 25 -0.5 Z M 67.97035716224158 0.5 L 76.94071432448318 0.5 L 76.94071432448318 3.5 L 83.94071432448318 0 L 76.94071432448318 -3.5 L 76.94071432448318 -0.5 L 67.97035716224158 -0.5 Z"/><text text-anchor="middle" pointer-events="none" font-size="8px" fill="#000000" x="50.97035716224159" y="3" font-family="sans-serif">ORIGIN</text></g><g class="relationship" transform="translate(-0.4754757335993169 142.194669639504) rotate(403.68756425219743)"><path class="outline" fill="#A5ABB6" stroke="none" d="M 25 0.5 L 26.827557105396757 0.5 L 26.827557105396757 -0.5 L 25 -0.5 Z M 74.82755710539675 0.5 L 76.65511421079351 0.5 L 76.65511421079351 3.5 L 83.65511421079351 0 L 76.65511421079351 -3.5 L 76.65511421079351 -0.5 L 74.82755710539675 -0.5 Z"/><text text-anchor="middle" pointer-events="none" font-size="8px" fill="#000000" x="50.82755710539676" y="3" font-family="sans-serif">DESTINA…</text></g></g><g class="layer nodes"><g class="node" transform="translate(206.48776411636518,46.20870700462893)"><circle class="outline" cx="0" cy="0" r="25" fill="#4C8EDA" stroke="#2870c2" stroke-width="2px"/><text text-anchor="middle" pointer-events="none" font-family="sans-serif" dy="1.5625" font-size="25" fill="#FFFFFF"/><text text-anchor="middle" pointer-events="none" x="0" y="5" font-size="10px" fill="#FFFFFF" font-family="sans-serif"> MSN</text></g><g class="node" transform="translate(78.09489332017532,217.24552540354068)"><circle class="outline" cx="0" cy="0" r="25" fill="#4C8EDA" stroke="#2870c2" stroke-width="2px"/><text text-anchor="middle" pointer-events="none" font-family="sans-serif" dy="1.5625" font-size="25" fill="#FFFFFF"/><text text-anchor="middle" pointer-events="none" x="0" y="5" font-size="10px" fill="#FFFFFF" font-family="sans-serif"> GRR</text></g><g class="node" transform="translate(112.46415375976265,-8.292565920218454)"><circle class="outline" cx="0" cy="0" r="25" fill="#ECB5C9" stroke="#da7298" stroke-width="2px"/><text text-anchor="middle" pointer-events="none" font-family="sans-serif" dy="1.5625" font-size="25" fill="#2A2C34"/><text text-anchor="middle" pointer-events="none" x="0" y="5" font-size="10px" fill="#2A2C34" font-family="sans-serif"> 11/30/2…</text></g><g class="node" transform="translate(12.05272114807813,33.97672509968852)"><circle class="outline" cx="0" cy="0" r="25" fill="#4C8EDA" stroke="#2870c2" stroke-width="2px"/><text text-anchor="middle" pointer-events="none" font-family="sans-serif" dy="1.5625" font-size="25" fill="#FFFFFF"/><text text-anchor="middle" pointer-events="none" x="0" y="5" font-size="10px" fill="#FFFFFF" font-family="sans-serif"> ORD</text></g><g class="node" transform="translate(-0.4754757335993169,142.194669639504)"><circle class="outline" cx="0" cy="0" r="25" fill="#ECB5C9" stroke="#da7298" stroke-width="2px"/><text text-anchor="middle" pointer-events="none" font-family="sans-serif" dy="1.5625" font-size="25" fill="#2A2C34"/><text text-anchor="middle" pointer-events="none" x="0" y="5" font-size="10px" fill="#2A2C34" font-family="sans-serif"> 11/17/2…</text></g></g></svg>